<svg xmlns="http://www.w3.org/2000/svg" xmlns:svg="http://www.w3.org/2000/svg" xmlns:xlink="http://www.w3.org/1999/xlink" id="svg4619" width="15" height="15" x="0" style="enable-background:new 0 0 15 15" y="0" version="1.1" viewBox="0 0 15 15" xml:space="preserve"><path id="path10041-3-3" d="M7.5,0.5L5,4.5l-1.5-2	C2.9452,3.4753,0.8036,5.7924,0.8036,8.3036C0.8036,12.002,3.8017,15,7.5,15s6.6964-2.998,6.6964-6.6964	c0-2.5112-2.1416-4.8283-2.6964-5.8036l-1.5,2L7.5,0.5z M7.5,7c0,0,2.5,2.5618,2.5,4.5c0,0.8371-0.8259,2-2.5,2S5,12.3371,5,11.5	C5,9.6283,7.5,7,7.5,7z"/></svg>